<?xml version="1.0" standalone="no"?>
<!DOCTYPE svg PUBLIC "-//W3C//DTD SVG 20010904//EN"
 "http://www.w3.org/TR/2001/REC-SVG-20010904/DTD/svg10.dtd">
<svg version="1.0" xmlns="http://www.w3.org/2000/svg"
 width="328.000000pt" height="127.000000pt" viewBox="0 0 328.000000 127.000000"
 preserveAspectRatio="xMidYMid meet">
<metadata>
Created by potrace 1.16, written by Peter Selinger 2001-2019
</metadata>
<g transform="translate(0.000000,127.000000) scale(0.100000,-0.100000)"
fill="#000000" stroke="none">
<path d="M0 635 l0 -635 1640 0 1640 0 0 635 0 635 -1640 0 -1640 0 0 -635z
m359 280 l24 -99 27 99 26 100 34 0 34 0 22 -88 c12 -49 24 -91 27 -93 3 -3
15 38 28 90 l23 96 33 0 c18 0 33 -3 33 -7 0 -4 -19 -74 -41 -155 l-42 -149
-35 3 c-35 3 -35 3 -57 86 -12 45 -24 84 -26 87 -3 2 -16 -36 -29 -86 l-24
-90 -35 3 -36 3 -37 135 c-47 170 -47 172 -6 168 32 -3 32 -4 57 -103z m391
40 l0 -65 55 0 54 0 3 63 c3 62 3 62 36 65 l32 3 0 -155 0 -156 -35 0 -35 0 0
60 0 60 -55 0 -55 0 0 -60 0 -60 -30 0 -30 0 0 155 0 155 30 0 30 0 0 -65z
m290 -90 l0 -155 -35 0 -35 0 0 155 0 155 35 0 35 0 0 -155z m238 123 c3 -27
1 -28 -37 -28 l-41 0 0 -125 0 -125 -30 0 -30 0 0 125 0 125 -40 0 c-38 0 -40
2 -40 30 l0 31 108 -3 107 -3 3 -27z m197 2 c0 -23 -4 -25 -52 -28 l-53 -3 0
-35 c0 -34 0 -34 45 -34 43 0 45 -1 45 -30 0 -29 -2 -30 -45 -30 -43 0 -45 -1
-45 -29 0 -29 2 -30 53 -33 48 -3 52 -5 55 -30 l3 -28 -90 0 -91 0 0 155 0
156 88 -3 c85 -3 87 -3 87 -28z m325 0 l0 -30 -60 0 -60 0 0 -35 c0 -35 0 -35
45 -35 43 0 45 -1 45 -30 0 -29 -2 -30 -45 -30 l-45 0 0 -60 0 -60 -30 0 -30
0 0 155 0 155 90 0 90 0 0 -30z m225 10 c57 -28 89 -85 83 -150 -19 -194 -298
-182 -298 13 0 121 107 189 215 137z m175 -105 l0 -125 45 0 c43 0 45 -1 45
-30 l0 -30 -80 0 -80 0 0 155 0 155 35 0 35 0 0 -125z m287 105 c62 -28 85
-70 81 -147 -3 -49 -9 -68 -28 -89 -41 -43 -73 -54 -155 -54 l-75 0 0 155 0
155 68 0 c44 0 81 -7 109 -20z m283 -10 c0 -30 -1 -30 -55 -30 l-55 0 0 -35 0
-35 50 0 c49 0 50 -1 50 -30 0 -29 -1 -30 -50 -30 -49 0 -50 -1 -50 -30 0 -30
1 -30 55 -30 54 0 55 0 55 -30 l0 -30 -85 0 -85 0 0 155 0 155 85 0 85 0 0
-30z m189 19 c63 -22 81 -110 32 -159 -15 -16 -25 -32 -21 -37 4 -4 20 -29 35
-55 l27 -48 -39 0 c-36 0 -41 3 -68 52 -42 72 -55 73 -55 4 0 -56 0 -56 -30
-56 l-30 0 0 155 0 155 59 0 c32 0 72 -5 90 -11z m-2403 -501 c63 -62 15 -168
-76 -168 l-40 0 0 -55 0 -55 -35 0 -35 0 0 156 0 156 80 -4 c70 -3 83 -6 106
-30z m214 17 c57 -29 68 -102 24 -154 l-26 -31 31 -50 c17 -28 31 -52 31 -55
0 -3 -17 -5 -38 -5 -35 0 -39 3 -67 55 -39 71 -55 71 -55 0 0 -54 0 -55 -30
-55 l-30 0 0 155 0 155 65 0 c39 0 78 -6 95 -15z m295 -5 c57 -28 89 -85 83
-150 -19 -194 -298 -182 -298 13 0 121 107 189 215 137z m282 0 c62 -28 85
-70 81 -147 -3 -49 -9 -68 -28 -89 -41 -43 -73 -54 -155 -54 l-75 0 0 155 0
155 68 0 c44 0 81 -7 109 -20z m173 -83 c0 -113 13 -147 55 -147 46 0 55 22
55 141 l0 110 33 -3 32 -3 3 -93 c1 -50 -2 -110 -8 -132 -14 -51 -57 -80 -119
-80 -36 0 -49 6 -77 34 l-34 34 0 121 0 121 30 0 30 0 0 -103z m436 77 c21
-15 54 -61 54 -79 0 -16 -66 -2 -92 20 -34 29 -48 31 -87 10 -34 -17 -41 -33
-41 -86 0 -75 81 -118 130 -69 20 20 90 29 90 11 0 -16 -42 -61 -70 -76 -16
-8 -49 -15 -73 -15 -154 0 -204 216 -66 288 50 26 110 25 155 -4z m284 -4 c0
-28 -3 -30 -35 -30 l-35 0 0 -125 0 -125 -35 0 -35 0 0 125 0 125 -35 0 c-32
0 -35 2 -35 30 l0 30 105 0 105 0 0 -30z m90 -125 l0 -155 -30 0 -30 0 0 155
0 155 30 0 30 0 0 -155z m250 133 c140 -73 87 -288 -71 -288 -156 0 -207 216
-69 288 24 12 56 22 70 22 14 0 46 -10 70 -22z m227 -70 l58 -92 3 92 3 92 34
0 35 0 0 -155 0 -155 -32 0 c-30 0 -38 7 -93 93 l-60 92 -3 -92 -3 -93 -29 0
-30 0 0 155 0 155 29 0 c26 0 36 -10 88 -92z"/>
<path d="M1925 950 c-34 -13 -48 -38 -49 -86 -1 -38 4 -50 27 -70 61 -52 137
-14 137 68 -1 46 -12 68 -47 86 -25 14 -40 14 -68 2z"/>
<path d="M2380 865 l0 -95 40 0 c57 0 80 26 80 90 0 64 -30 100 -85 100 l-35
0 0 -95z"/>
<path d="M965 470 c-34 -13 -48 -38 -49 -86 -1 -38 4 -50 27 -70 61 -52 137
-14 137 68 -1 46 -12 68 -47 86 -25 14 -40 14 -68 2z"/>
<path d="M1240 385 l0 -95 40 0 c57 0 80 26 80 90 0 64 -30 100 -85 100 l-35
0 0 -95z"/>
<path d="M2475 469 c-34 -19 -45 -41 -45 -86 0 -80 73 -120 132 -73 14 11 28
31 31 46 6 32 -8 88 -27 103 -20 17 -69 22 -91 10z"/>
</g>
</svg>
